<?xml version="1.0" encoding="utf-8"?>
<!-- Generator: Adobe Illustrator 16.0.4, SVG Export Plug-In . SVG Version: 6.00 Build 0)  -->
<!DOCTYPE svg PUBLIC "-//W3C//DTD SVG 1.1//EN" "http://www.w3.org/Graphics/SVG/1.1/DTD/svg11.dtd">
<svg version="1.1" id="Isolation_Mode" xmlns="http://www.w3.org/2000/svg" xmlns:xlink="http://www.w3.org/1999/xlink" x="0px"
	 y="0px" width="36px" height="36px" viewBox="0 0 36 36" enable-background="new 0 0 36 36" xml:space="preserve">
<circle fill="#FED41A" cx="18" cy="18" r="18"/>
<g>
	<path fill="#FFFFFF" d="M19.93,7.009c0,0-0.68-0.381-1.93-0.381c-1.251,0-1.932,0.381-1.932,0.381L13,12.566
		c0,0,2.375,0.763,5,0.763c2.621,0,5-0.763,5-0.763L19.93,7.009z"/>
	<path fill="#414042" d="M18.729,27.823V13.761c0,0-0.323,0.044-0.729,0.044c-0.408,0-0.729-0.044-0.729-0.044v14.062l-3.734,0.762
		v0.469c0,0,1.624,0.318,4.464,0.318c2.836,0,4.461-0.318,4.461-0.318v-0.469L18.729,27.823z"/>
</g>
</svg>
