<?xml version="1.0" encoding="utf-8"?>
<!-- Generator: Adobe Illustrator 16.0.4, SVG Export Plug-In . SVG Version: 6.00 Build 0)  -->
<!DOCTYPE svg PUBLIC "-//W3C//DTD SVG 1.1//EN" "http://www.w3.org/Graphics/SVG/1.1/DTD/svg11.dtd">
<svg version="1.1" id="Layer_1" xmlns="http://www.w3.org/2000/svg" xmlns:xlink="http://www.w3.org/1999/xlink" x="0px" y="0px"
	 width="140px" height="38.586px" viewBox="0 0 140 38.586" enable-background="new 0 0 140 38.586" xml:space="preserve">
<path fill="#3B5999" d="M-58.81-79.236c-13.267,0-24.022,10.757-24.022,24.022c0,13.267,10.755,24.02,24.022,24.02
	c13.266,0,24.022-10.753,24.022-24.02C-34.788-68.479-45.544-79.236-58.81-79.236z M-52.451-55.315h-4.159
	c0,6.647,0,14.835,0,14.835h-6.167c0,0,0-8.104,0-14.835h-2.931v-5.238h2.931v-3.393c0-2.429,1.154-6.221,6.223-6.221l4.564,0.017
	v5.087c0,0-2.775,0-3.315,0s-1.306,0.271-1.306,1.425v3.084h4.699L-52.451-55.315z"/>
<path fill="#5FA9DD" d="M-58.877-14.227c-13.23,0-23.955,10.728-23.955,23.954c0,13.229,10.725,23.953,23.955,23.953
	s23.953-10.724,23.953-23.953C-34.924-3.499-45.646-14.227-58.877-14.227z M-52.439,23.681c-0.986,0-6.452-0.129-7.848-0.129
	s-8.67-2.269-8.67-10.271c0-1.425,0-2.857-0.004-4.285C-68.967,7.667-68.994,6.339-69,5.019c0-0.386-0.002-0.771-0.004-1.158
	c-0.01-2.016-0.18-4.283,0.469-6.22c0.496-1.477,1.668-2.067,3.113-2.067c3.496,0,3.73,3.564,3.739,7.145h10.104
	c1.601,0,2.794,1.622,2.794,4.104c0,2.481-2.588,3.038-3.943,3.038h-9.067c-0.045,1.521-0.094,2.758-0.094,3.51
	c0,1.581,0.617,3.293,4.477,3.293h5.427c1.354,0,3.366,1.025,3.366,3.894C-48.619,23.419-51.454,23.681-52.439,23.681z"/>
<g>
	<polygon fill="#3F729B" points="-48.906,65.183 -48.906,61.335 -48.906,60.761 -49.482,60.763 -53.328,60.775 -53.313,65.197 	"/>
	<path fill="#3F729B" d="M-58.932,75.392c2.531,0,4.593-2.06,4.593-4.591c0-1.001-0.325-1.924-0.869-2.678
		c-0.835-1.155-2.191-1.915-3.724-1.915c-1.533,0-2.888,0.76-3.723,1.915c-0.545,0.754-0.869,1.677-0.869,2.678
		C-63.523,73.332-61.463,75.392-58.932,75.392z"/>
	<path fill="#3F729B" d="M-58.812,46.438c-13.253,0-23.998,10.743-23.998,23.996s10.745,23.998,23.998,23.998
		c13.252,0,23.997-10.745,23.997-23.998S-45.561,46.438-58.812,46.438z M-45.887,68.123v10.68c0,2.781-2.262,5.042-5.042,5.042
		h-16.007c-2.779,0-5.041-2.261-5.041-5.042v-10.68v-5.326c0-2.78,2.262-5.042,5.041-5.042h16.007c2.78,0,5.042,2.262,5.042,5.042
		V68.123z"/>
	<path fill="#3F729B" d="M-51.798,70.801c0,3.933-3.199,7.134-7.134,7.134s-7.133-3.201-7.133-7.134c0-0.947,0.188-1.85,0.524-2.678
		h-3.895v10.68c0,1.38,1.121,2.501,2.499,2.501h16.007c1.379,0,2.5-1.121,2.5-2.501v-10.68h-3.896
		C-51.988,68.951-51.798,69.854-51.798,70.801z"/>
</g>
<g>
	<path fill="#414042" d="M6.772-55.274v16.906H1.771v-16.906H0v-4.646h1.771v-8.31c0-2.715,0.473-4.636,1.419-5.759
		c1.293-1.561,3.185-2.344,5.659-2.344c0.889,0,3.342,0.42,3.342,0.42v4.732c0,0-2.47-0.371-3.163-0.371
		c-0.885,0-1.481,0.313-1.796,0.946c-0.307,0.622-0.459,1.813-0.459,3.589v7.096h5.418v4.646H6.772z"/>
	<path fill="#414042" d="M31.639-59.921h4.997v21.553h-4.997v-2.26c-2.055,1.922-4.257,2.881-6.619,2.881
		c-2.978,0-5.44-1.08-7.387-3.23c-1.931-2.197-2.897-4.941-2.897-8.232c0-3.23,0.967-5.924,2.897-8.072
		c1.933-2.158,4.351-3.234,7.254-3.234c2.511,0,4.758,1.035,6.752,3.104V-59.921z M19.823-49.21c0,2.068,0.555,3.746,1.658,5.045
		c1.137,1.309,2.567,1.971,4.291,1.971c1.845,0,3.33-0.637,4.471-1.904c1.134-1.314,1.7-2.979,1.7-5c0-2.027-0.566-3.686-1.7-5.004
		c-1.141-1.279-2.612-1.922-4.426-1.922c-1.711,0-3.145,0.652-4.291,1.947C20.39-52.769,19.823-51.142,19.823-49.21z"/>
	<path fill="#414042" d="M47.535-75.737v18.324c1.996-2.068,4.253-3.104,6.774-3.104c2.906,0,5.325,1.092,7.257,3.254
		c1.933,2.154,2.899,4.838,2.899,8.053c0,3.32-0.974,6.061-2.923,8.232c-1.932,2.15-4.372,3.23-7.324,3.23
		c-2.489,0-4.718-0.959-6.684-2.881v2.26h-4.969v-37.369H47.535z M59.377-48.987c0-2.062-0.563-3.746-1.683-5.045
		c-1.138-1.324-2.558-1.992-4.27-1.992c-1.83,0-3.32,0.643-4.467,1.922c-1.136,1.273-1.704,2.926-1.704,4.959
		c0,2.096,0.559,3.77,1.684,5.018c1.117,1.285,2.59,1.932,4.42,1.932c1.727,0,3.159-0.646,4.293-1.932
		C58.799-45.413,59.377-47.042,59.377-48.987z"/>
	<path fill="#414042" d="M88.64-47.972h-15.44c0.133,1.77,0.709,3.18,1.729,4.225c1.016,1.031,2.319,1.553,3.914,1.553
		c1.238,0,2.263-0.299,3.073-0.885c0.796-0.596,1.706-1.684,2.722-3.275l4.203,2.34c-0.648,1.113-1.332,2.064-2.055,2.848
		c-0.725,0.787-1.501,1.439-2.324,1.945c-0.825,0.51-1.72,0.877-2.676,1.119c-0.965,0.236-2,0.355-3.119,0.355
		c-3.218,0-5.796-1.031-7.744-3.104c-1.947-2.076-2.919-4.832-2.919-8.268c0-3.408,0.941-6.166,2.831-8.275
		c1.903-2.084,4.425-3.123,7.565-3.123c3.172,0,5.676,1.016,7.521,3.037c1.833,2.008,2.741,4.783,2.741,8.336L88.64-47.972z
		 M83.533-52.034c-0.696-2.666-2.368-3.99-5.023-3.99c-0.605,0-1.175,0.098-1.702,0.277c-0.531,0.182-1.013,0.451-1.453,0.795
		c-0.431,0.35-0.807,0.764-1.112,1.254c-0.313,0.484-0.545,1.041-0.711,1.664H83.533z"/>
	<path fill="#414042" d="M99.062-75.737v37.369h-4.979v-37.369H99.062z"/>
	<path fill="#414042" d="M117.012-49.302c0-3.107,1.116-5.752,3.34-7.939c2.229-2.18,4.94-3.275,8.142-3.275
		c3.218,0,5.944,1.1,8.185,3.299c2.212,2.199,3.322,4.898,3.322,8.1c0,3.229-1.117,5.934-3.342,8.117
		c-2.244,2.168-4.992,3.254-8.255,3.254c-3.228,0-5.933-1.109-8.113-3.32C118.104-43.251,117.012-45.995,117.012-49.302z
		 M122.102-49.21c0,2.152,0.573,3.857,1.728,5.111c1.179,1.268,2.732,1.904,4.664,1.904c1.947,0,3.503-0.633,4.667-1.881
		c1.165-1.252,1.749-2.932,1.749-5.023s-0.584-3.77-1.749-5.023c-1.177-1.266-2.733-1.902-4.667-1.902
		c-1.902,0-3.443,0.637-4.619,1.902C122.69-52.854,122.102-51.216,122.102-49.21z"/>
	<g>
		<path fill="#FFD41C" d="M111.901-69.241c0,0-0.938-0.525-2.663-0.525c-1.729,0-2.668,0.525-2.668,0.525l-4.235,7.672
			c0,0,3.278,1.053,6.903,1.053c3.618,0,6.902-1.053,6.902-1.053L111.901-69.241z"/>
		<path fill="#414042" d="M110.245-40.507v-19.414c0,0-0.446,0.061-1.007,0.061c-0.564,0-1.007-0.061-1.007-0.061v19.414
			l-5.156,1.053v0.645c0,0,2.242,0.441,6.163,0.441c3.915,0,6.158-0.441,6.158-0.441v-0.645L110.245-40.507z"/>
	</g>
</g>
<g>
	<path fill="#414042" d="M6.772,21.059v16.906H1.771V21.059H0v-4.646h1.771v-8.31c0-2.715,0.473-4.636,1.419-5.759
		C4.482,0.783,6.374,0,8.849,0c0.889,0,3.342,0.42,3.342,0.42v4.732c0,0-2.47-0.371-3.163-0.371c-0.885,0-1.481,0.313-1.796,0.946
		C6.925,6.35,6.772,7.541,6.772,9.316v7.096h5.418v4.646H6.772z"/>
	<path fill="#414042" d="M31.639,16.412h4.997v21.553h-4.997v-2.26c-2.055,1.922-4.257,2.881-6.619,2.881
		c-2.978,0-5.44-1.08-7.387-3.23c-1.931-2.197-2.897-4.941-2.897-8.232c0-3.23,0.967-5.924,2.897-8.072
		c1.933-2.158,4.351-3.234,7.254-3.234c2.511,0,4.758,1.035,6.752,3.104V16.412z M19.823,27.123c0,2.068,0.555,3.746,1.658,5.045
		c1.137,1.309,2.567,1.971,4.291,1.971c1.845,0,3.33-0.637,4.471-1.904c1.134-1.314,1.7-2.979,1.7-5c0-2.027-0.566-3.686-1.7-5.004
		c-1.141-1.279-2.612-1.922-4.426-1.922c-1.711,0-3.145,0.652-4.291,1.947C20.39,23.564,19.823,25.191,19.823,27.123z"/>
	<path fill="#414042" d="M47.535,0.596V18.92c1.996-2.068,4.253-3.104,6.774-3.104c2.906,0,5.325,1.092,7.257,3.254
		c1.933,2.154,2.899,4.838,2.899,8.053c0,3.32-0.974,6.061-2.923,8.232c-1.932,2.15-4.372,3.23-7.324,3.23
		c-2.489,0-4.718-0.959-6.684-2.881v2.26h-4.969V0.596H47.535z M59.377,27.346c0-2.062-0.563-3.746-1.683-5.045
		c-1.138-1.324-2.558-1.992-4.27-1.992c-1.83,0-3.32,0.643-4.467,1.922c-1.136,1.273-1.704,2.926-1.704,4.959
		c0,2.096,0.559,3.77,1.684,5.018c1.117,1.285,2.59,1.932,4.42,1.932c1.727,0,3.159-0.646,4.293-1.932
		C58.799,30.92,59.377,29.291,59.377,27.346z"/>
	<path fill="#414042" d="M88.64,28.361h-15.44c0.133,1.77,0.709,3.18,1.729,4.225c1.016,1.031,2.319,1.553,3.914,1.553
		c1.238,0,2.263-0.299,3.073-0.885c0.796-0.596,1.706-1.684,2.722-3.275l4.203,2.34c-0.648,1.113-1.332,2.064-2.055,2.848
		c-0.725,0.787-1.501,1.439-2.324,1.945c-0.825,0.51-1.72,0.877-2.676,1.119c-0.965,0.236-2,0.355-3.119,0.355
		c-3.218,0-5.796-1.031-7.744-3.104c-1.947-2.076-2.919-4.832-2.919-8.268c0-3.408,0.941-6.166,2.831-8.275
		c1.903-2.084,4.425-3.123,7.565-3.123c3.172,0,5.676,1.016,7.521,3.037c1.833,2.008,2.741,4.783,2.741,8.336L88.64,28.361z
		 M83.533,24.299c-0.696-2.666-2.368-3.99-5.023-3.99c-0.605,0-1.175,0.098-1.702,0.277c-0.531,0.182-1.013,0.451-1.453,0.795
		c-0.431,0.35-0.807,0.764-1.112,1.254c-0.313,0.484-0.545,1.041-0.711,1.664H83.533z"/>
	<path fill="#414042" d="M99.062,0.596v37.369h-4.979V0.596H99.062z"/>
	<path fill="#414042" d="M117.012,27.031c0-3.107,1.116-5.752,3.34-7.939c2.229-2.18,4.94-3.275,8.142-3.275
		c3.218,0,5.944,1.1,8.185,3.299c2.212,2.199,3.322,4.898,3.322,8.1c0,3.229-1.117,5.934-3.342,8.117
		c-2.244,2.168-4.992,3.254-8.255,3.254c-3.228,0-5.933-1.109-8.113-3.32C118.104,33.082,117.012,30.338,117.012,27.031z
		 M122.102,27.123c0,2.152,0.573,3.857,1.728,5.111c1.179,1.268,2.732,1.904,4.664,1.904c1.947,0,3.503-0.633,4.667-1.881
		c1.165-1.252,1.749-2.932,1.749-5.023s-0.584-3.77-1.749-5.023c-1.177-1.266-2.733-1.902-4.667-1.902
		c-1.902,0-3.443,0.637-4.619,1.902C122.69,23.479,122.102,25.117,122.102,27.123z"/>
	<g>
		<path fill="#FFFFFF" d="M111.901,7.092c0,0-0.938-0.525-2.663-0.525c-1.729,0-2.668,0.525-2.668,0.525l-4.235,7.672
			c0,0,3.278,1.053,6.903,1.053c3.618,0,6.902-1.053,6.902-1.053L111.901,7.092z"/>
		<path fill="#414042" d="M110.245,35.826V16.412c0,0-0.446,0.061-1.007,0.061c-0.564,0-1.007-0.061-1.007-0.061v19.414
			l-5.156,1.053v0.645c0,0,2.242,0.441,6.163,0.441c3.915,0,6.158-0.441,6.158-0.441v-0.645L110.245,35.826z"/>
	</g>
</g>
</svg>
