<?xml version="1.0" encoding="utf-8"?>
<!-- Generator: Adobe Illustrator 16.0.4, SVG Export Plug-In . SVG Version: 6.00 Build 0)  -->
<!DOCTYPE svg PUBLIC "-//W3C//DTD SVG 1.1//EN" "http://www.w3.org/Graphics/SVG/1.1/DTD/svg11.dtd">
<svg version="1.1" id="Layer_1" xmlns="http://www.w3.org/2000/svg" xmlns:xlink="http://www.w3.org/1999/xlink" x="0px" y="0px"
	 width="48px" height="48px" viewBox="108.666 94.667 48 48" enable-background="new 108.666 94.667 48 48" xml:space="preserve">
<path fill="none" d="M108.666,94.667h48v48h-48V94.667z"/>
<path fill="#FFD41C" d="M132.667,98.667c-11.051,0-20.001,8.95-20.001,20c0,11.049,8.95,20,20.001,20
	c11.048,0,19.999-8.951,19.999-20C152.666,107.617,143.715,98.667,132.667,98.667z M134.666,132.667h-3.999v-4h3.999V132.667z
	 M138.795,117.177l-1.789,1.84c-1.439,1.439-2.34,2.65-2.34,5.65h-3.999v-1c0-2.211,0.899-4.211,2.34-5.66l2.489-2.52
	c0.719-0.721,1.17-1.721,1.17-2.82c0-2.21-1.791-4-3.999-4c-2.211,0-4,1.79-4,4h-4c0-4.42,3.58-8,8-8c4.419,0,7.999,3.58,7.999,8
	C140.666,114.427,139.955,116.017,138.795,117.177z"/>
</svg>
