<?xml version="1.0" encoding="utf-8"?>
<!-- Generator: Adobe Illustrator 16.0.4, SVG Export Plug-In . SVG Version: 6.00 Build 0)  -->
<!DOCTYPE svg PUBLIC "-//W3C//DTD SVG 1.1//EN" "http://www.w3.org/Graphics/SVG/1.1/DTD/svg11.dtd">
<svg version="1.1" id="Layer_1" xmlns="http://www.w3.org/2000/svg" xmlns:xlink="http://www.w3.org/1999/xlink" x="0px" y="0px"
	 width="48px" height="48px" viewBox="0 0 48 48" enable-background="new 0 0 48 48" xml:space="preserve">
<g>
	<defs>
		<rect id="SVGID_5_" x="2.026" y="2.027" width="43.947" height="43.946"/>
	</defs>
	<clipPath id="SVGID_2_">
		<use xlink:href="#SVGID_5_"  overflow="visible"/>
	</clipPath>
	<path clip-path="url(#SVGID_2_)" fill="#474647" d="M42.432,16.676c2.809-2.808,3.296-7.081,0.855-9.521
		c-2.442-2.442-6.592-1.955-9.521,0.854c-2.076,2.074-2.93,5.004-2.198,7.325l-8.789,8.788l-1.709-1.709L4.467,5.811
		c-4.517,3.296,4.518,17.091,9.4,24.049l3.907-3.907l1.708,1.709L7.764,39.38l3.417,3.42L22.9,31.08L34.62,42.8l3.418-3.42
		l-11.72-11.718l8.79-8.79C37.426,19.606,40.357,18.872,42.432,16.676z"/>
</g>
</svg>
