<?xml version="1.0" encoding="utf-8"?>
<!-- Generator: Adobe Illustrator 16.0.4, SVG Export Plug-In . SVG Version: 6.00 Build 0)  -->
<!DOCTYPE svg PUBLIC "-//W3C//DTD SVG 1.1//EN" "http://www.w3.org/Graphics/SVG/1.1/DTD/svg11.dtd">
<svg version="1.1" id="Layer_1" xmlns="http://www.w3.org/2000/svg" xmlns:xlink="http://www.w3.org/1999/xlink" x="0px" y="0px"
	 width="48px" height="48px" viewBox="0 0 48 48" enable-background="new 0 0 48 48" xml:space="preserve">
<g>
	<defs>
		<rect id="SVGID_1_" x="1.899" y="2.027" width="43.947" height="43.946"/>
	</defs>
	<clipPath id="SVGID_2_">
		<use xlink:href="#SVGID_1_"  overflow="visible"/>
	</clipPath>
	<polygon clip-path="url(#SVGID_2_)" fill="#474647" points="38.522,9.351 9.223,9.351 8.002,4.469 39.743,4.469 	"/>
	<path clip-path="url(#SVGID_2_)" fill="#474647" d="M33.639,19.116h-4.882v-4.882h4.882V19.116z M33.639,26.443h-4.882v-4.885
		h4.882V26.443z M33.639,33.766h-4.882v-4.882h4.882V33.766z M26.314,19.116H21.43v-4.882h4.884V19.116z M26.314,26.443H21.43
		v-4.885h4.884V26.443z M26.314,33.766H21.43v-4.882h4.884V33.766z M18.988,19.116h-4.882v-4.882h4.882V19.116z M18.988,26.443
		h-4.882v-4.885h4.882V26.443z M18.988,33.766h-4.882v-4.882h4.882V33.766z M10.444,11.793v31.738H21.43v-7.324h4.884v7.324h10.987
		V11.793H10.444z"/>
</g>
</svg>
