<?xml version="1.0" encoding="utf-8"?>
<!-- Generator: Adobe Illustrator 16.0.4, SVG Export Plug-In . SVG Version: 6.00 Build 0)  -->
<!DOCTYPE svg PUBLIC "-//W3C//DTD SVG 1.1//EN" "http://www.w3.org/Graphics/SVG/1.1/DTD/svg11.dtd">
<svg version="1.1" id="Layer_1" xmlns="http://www.w3.org/2000/svg" xmlns:xlink="http://www.w3.org/1999/xlink" x="0px" y="0px"
	 width="48px" height="48px" viewBox="0 0 48 48" enable-background="new 0 0 48 48" xml:space="preserve">
<g>
	<defs>
		<rect id="SVGID_15_" width="48" height="48"/>
	</defs>
	<clipPath id="SVGID_2_">
		<use xlink:href="#SVGID_15_"  overflow="visible"/>
	</clipPath>
	<path clip-path="url(#SVGID_2_)" fill="#474647" d="M31,8l-2-2H19l-2,2h-7v4h28V8H31z M16.93,23.76l2.83-2.83L24,25.17l4.24-4.24
		l2.83,2.83L26.83,28l4.24,4.24l-2.83,2.83L24,30.83l-4.24,4.24l-2.83-2.83L21.17,28L16.93,23.76z M12,38c0,2.2,1.8,4,4,4h16
		c2.2,0,4-1.8,4-4V14H12V38z"/>
</g>
</svg>
