<?xml version="1.0" encoding="utf-8"?>
<!-- Generator: Adobe Illustrator 16.0.4, SVG Export Plug-In . SVG Version: 6.00 Build 0)  -->
<!DOCTYPE svg PUBLIC "-//W3C//DTD SVG 1.1//EN" "http://www.w3.org/Graphics/SVG/1.1/DTD/svg11.dtd">
<svg version="1.1" id="Layer_1" xmlns="http://www.w3.org/2000/svg" xmlns:xlink="http://www.w3.org/1999/xlink" x="0px" y="0px"
	 width="48px" height="48px" viewBox="0 0 48 48" enable-background="new 0 0 48 48" xml:space="preserve">
<g>
	<path fill="#474647" d="M11.093,21.875l-3.04,11.35C7.8,34.169,8.36,35.139,9.307,35.393l5.829,1.563L11.093,21.875z"/>
	<path fill="#474647" d="M14.452,25.278l3.357,12.535c0.254,0.944,1.224,1.506,2.168,1.253l6.513-1.747L14.452,25.278z"/>
	<path fill="#474647" d="M24.507,22.375c-0.104-0.181-0.232-0.345-0.386-0.494l-0.51-0.491c-0.154-0.149-0.326-0.271-0.511-0.365
		c-0.186-0.094-0.375-0.151-0.569-0.171c-0.193-0.02-0.389,0.004-0.583,0.076c-0.197,0.071-0.38,0.195-0.55,0.371
		c-0.175,0.181-0.293,0.369-0.354,0.565c-0.062,0.197-0.079,0.392-0.052,0.583c0.028,0.193,0.092,0.381,0.194,0.563
		c0.1,0.182,0.228,0.349,0.382,0.498L22.078,24c0.154,0.149,0.324,0.27,0.508,0.361c0.183,0.092,0.373,0.147,0.568,0.165
		c0.194,0.018,0.391-0.009,0.586-0.078c0.196-0.072,0.383-0.198,0.555-0.378c0.171-0.177,0.286-0.363,0.348-0.559
		s0.082-0.39,0.054-0.581C24.674,22.74,24.61,22.555,24.507,22.375z"/>
	<path fill="#474647" d="M40.767,23.206L26.434,8.875l-10.16-0.002c-1.304,0-2.362,1.058-2.362,2.362l-0.001,10.164l14.332,14.332
		c0.691,0.692,1.812,0.692,2.505,0l10.02-10.02C41.457,25.018,41.457,23.898,40.767,23.206z M19.194,14.158
		c-0.692,0.692-1.813,0.692-2.504,0c-0.691-0.692-0.692-1.812,0-2.503c0.692-0.693,1.814-0.693,2.504-0.001
		C19.885,12.345,19.885,13.465,19.194,14.158z M25.724,23.862c-0.128,0.345-0.341,0.67-0.633,0.974
		c-0.298,0.309-0.618,0.536-0.961,0.679c-0.342,0.142-0.685,0.213-1.029,0.213c-0.346,0-0.681-0.071-1.01-0.211
		c-0.328-0.142-0.626-0.343-0.896-0.603l-0.51-0.492c-0.273-0.263-0.487-0.556-0.64-0.879c-0.153-0.322-0.239-0.655-0.255-1.001
		c-0.018-0.344,0.039-0.689,0.168-1.038c0.131-0.346,0.343-0.672,0.637-0.978c0.298-0.309,0.617-0.535,0.96-0.678
		c0.343-0.143,0.686-0.21,1.028-0.204c0.342,0.006,0.677,0.081,1.006,0.222c0.327,0.142,0.629,0.345,0.901,0.609l0.509,0.492
		c0.27,0.259,0.481,0.549,0.637,0.87s0.239,0.652,0.256,0.994C25.907,23.173,25.853,23.516,25.724,23.862z M28.82,29.236
		l-2.997-11.973l1.108-0.273l2.995,11.973L28.82,29.236z M35.688,24.409c-0.129,0.344-0.34,0.67-0.634,0.975
		c-0.299,0.309-0.618,0.535-0.962,0.677c-0.342,0.143-0.684,0.214-1.029,0.214c-0.345,0-0.683-0.071-1.01-0.213
		c-0.326-0.142-0.629-0.345-0.901-0.608l-0.518-0.499c-0.27-0.259-0.481-0.551-0.636-0.876c-0.157-0.324-0.24-0.658-0.258-1
		c-0.014-0.343,0.044-0.687,0.174-1.035c0.13-0.347,0.344-0.672,0.637-0.978c0.297-0.308,0.617-0.536,0.96-0.677
		c0.343-0.143,0.685-0.214,1.027-0.211c0.343,0.003,0.679,0.077,1.008,0.219c0.331,0.144,0.631,0.345,0.899,0.605l0.518,0.497
		c0.273,0.265,0.487,0.558,0.64,0.88c0.154,0.323,0.236,0.655,0.252,0.998C35.871,23.72,35.813,24.063,35.688,24.409z"/>
	<path fill="#474647" d="M34.462,22.916c-0.103-0.181-0.232-0.345-0.387-0.493l-0.517-0.498c-0.154-0.15-0.324-0.271-0.511-0.364
		c-0.186-0.095-0.375-0.151-0.564-0.169c-0.191-0.019-0.385,0.008-0.581,0.079c-0.195,0.071-0.379,0.194-0.55,0.37
		c-0.169,0.176-0.285,0.364-0.346,0.56c-0.062,0.196-0.082,0.391-0.058,0.583c0.022,0.193,0.086,0.381,0.186,0.562
		c0.1,0.183,0.229,0.348,0.382,0.497l0.518,0.498c0.155,0.149,0.324,0.271,0.51,0.365c0.187,0.094,0.379,0.15,0.573,0.168
		c0.195,0.019,0.392-0.008,0.587-0.078c0.197-0.071,0.381-0.197,0.557-0.378c0.169-0.177,0.285-0.363,0.347-0.559
		c0.061-0.197,0.079-0.391,0.053-0.583C34.631,23.282,34.565,23.096,34.462,22.916z"/>
</g>
</svg>
