<?xml version="1.0" encoding="utf-8"?>
<!-- Generator: Adobe Illustrator 16.0.4, SVG Export Plug-In . SVG Version: 6.00 Build 0)  -->
<!DOCTYPE svg PUBLIC "-//W3C//DTD SVG 1.1//EN" "http://www.w3.org/Graphics/SVG/1.1/DTD/svg11.dtd">
<svg version="1.1" id="Layer_1" xmlns="http://www.w3.org/2000/svg" xmlns:xlink="http://www.w3.org/1999/xlink" x="0px" y="0px"
	 width="48px" height="48px" viewBox="0 0 48 48" enable-background="new 0 0 48 48" xml:space="preserve">
<path fill="#474647" d="M20.427,26.207c0,1.908-0.207,3.546-0.621,4.913c-0.412,1.367-0.994,2.492-1.743,3.376
	c-0.752,0.885-1.652,1.532-2.706,1.946c-1.052,0.413-2.219,0.619-3.498,0.619s-2.445-0.206-3.499-0.619
	c-1.053-0.414-1.957-1.062-2.713-1.946c-0.757-0.884-1.345-2.009-1.764-3.376c-0.418-1.367-0.628-3.005-0.628-4.913v-4.415
	c0-1.907,0.206-3.546,0.62-4.912c0.413-1.367,0.997-2.488,1.754-3.367c0.755-0.879,1.657-1.525,2.704-1.938
	c1.047-0.413,2.211-0.619,3.49-0.619c1.28,0,2.446,0.206,3.499,0.619c1.053,0.412,1.956,1.059,2.714,1.938
	c0.756,0.879,1.343,2,1.762,3.367c0.419,1.366,0.629,3.005,0.629,4.912V26.207z M15.384,21.077c0-1.129-0.079-2.077-0.235-2.845
	c-0.158-0.768-0.391-1.387-0.699-1.858c-0.309-0.471-0.684-0.812-1.125-1.021c-0.441-0.208-0.942-0.313-1.501-0.313
	c-0.558,0-1.056,0.105-1.492,0.313c-0.436,0.21-0.806,0.551-1.107,1.021c-0.303,0.472-0.532,1.091-0.688,1.858
	C8.377,19,8.298,19.948,8.298,21.077v5.794c0,1.14,0.082,2.1,0.245,2.878c0.163,0.78,0.395,1.412,0.698,1.895
	c0.303,0.482,0.674,0.828,1.116,1.037c0.443,0.21,0.942,0.315,1.501,0.315c0.558,0,1.058-0.105,1.501-0.315
	c0.442-0.209,0.812-0.555,1.108-1.037c0.296-0.482,0.522-1.114,0.681-1.895c0.156-0.778,0.235-1.738,0.235-2.878V21.077z"/>
<path fill="#474647" d="M22.235,16.191c0-0.722,0.12-1.399,0.357-2.034c0.24-0.634,0.591-1.188,1.057-1.666s1.039-0.854,1.72-1.135
	c0.68-0.278,1.468-0.418,2.364-0.418c0.907,0,1.707,0.14,2.4,0.418c0.69,0.28,1.27,0.657,1.736,1.135
	c0.464,0.478,0.812,1.032,1.045,1.666c0.233,0.635,0.35,1.312,0.35,2.034v1.343c0,0.71-0.116,1.382-0.35,2.017
	c-0.232,0.633-0.581,1.185-1.045,1.657c-0.467,0.47-1.04,0.846-1.721,1.126c-0.68,0.278-1.474,0.419-2.382,0.419
	c-0.896,0-1.689-0.141-2.381-0.419c-0.693-0.28-1.271-0.656-1.737-1.126c-0.466-0.473-0.816-1.024-1.057-1.657
	c-0.237-0.635-0.357-1.307-0.357-2.017V16.191z M25.587,17.534c0,0.304,0.043,0.594,0.131,0.872c0.088,0.28,0.224,0.527,0.411,0.742
	c0.185,0.216,0.412,0.387,0.679,0.515c0.269,0.129,0.588,0.192,0.96,0.192c0.36,0,0.675-0.063,0.942-0.192
	c0.268-0.128,0.489-0.299,0.664-0.515c0.174-0.215,0.305-0.462,0.392-0.742c0.087-0.278,0.131-0.568,0.131-0.872v-1.343
	c0-0.303-0.044-0.597-0.131-0.882c-0.087-0.286-0.218-0.535-0.392-0.751c-0.175-0.215-0.399-0.386-0.672-0.515
	c-0.273-0.128-0.597-0.192-0.969-0.192c-0.361,0-0.676,0.064-0.943,0.192c-0.267,0.129-0.491,0.3-0.671,0.515
	c-0.181,0.216-0.313,0.465-0.401,0.751c-0.088,0.285-0.131,0.579-0.131,0.882V17.534z M28.763,34.811l-2.461-1.326l12.407-19.858
	l2.461,1.326L28.763,34.811z M34.383,30.482c0-0.71,0.118-1.384,0.356-2.023c0.239-0.641,0.594-1.195,1.064-1.667
	s1.047-0.846,1.728-1.127c0.681-0.277,1.469-0.418,2.364-0.418c0.908,0,1.707,0.141,2.4,0.418c0.692,0.281,1.271,0.655,1.736,1.127
	s0.813,1.026,1.046,1.667c0.232,0.64,0.35,1.313,0.35,2.023v1.361c0,0.721-0.117,1.396-0.35,2.023
	c-0.232,0.629-0.581,1.182-1.046,1.659c-0.465,0.476-1.039,0.852-1.719,1.125c-0.681,0.273-1.476,0.41-2.383,0.41
	c-0.895,0-1.69-0.137-2.382-0.41c-0.692-0.273-1.274-0.649-1.745-1.125c-0.471-0.478-0.825-1.03-1.064-1.659
	c-0.238-0.628-0.356-1.303-0.356-2.023V30.482z M37.732,31.844c0,0.303,0.052,0.593,0.157,0.872c0.105,0.28,0.252,0.527,0.443,0.742
	c0.192,0.215,0.422,0.387,0.69,0.515c0.268,0.129,0.569,0.192,0.907,0.192c0.419,0,0.766-0.063,1.038-0.192
	c0.274-0.128,0.492-0.3,0.656-0.515c0.161-0.215,0.274-0.462,0.338-0.742c0.064-0.279,0.098-0.569,0.098-0.872v-1.361
	c0-0.302-0.045-0.593-0.132-0.872s-0.221-0.526-0.401-0.743c-0.181-0.214-0.407-0.385-0.681-0.515
	c-0.273-0.128-0.591-0.191-0.951-0.191s-0.677,0.063-0.95,0.191c-0.273,0.13-0.5,0.301-0.681,0.515
	c-0.181,0.217-0.314,0.464-0.401,0.743s-0.131,0.57-0.131,0.872V31.844z"/>
</svg>
