<?xml version="1.0" encoding="utf-8"?>
<!-- Generator: Adobe Illustrator 16.0.4, SVG Export Plug-In . SVG Version: 6.00 Build 0)  -->
<!DOCTYPE svg PUBLIC "-//W3C//DTD SVG 1.1//EN" "http://www.w3.org/Graphics/SVG/1.1/DTD/svg11.dtd">
<svg version="1.1" id="Layer_1" xmlns="http://www.w3.org/2000/svg" xmlns:xlink="http://www.w3.org/1999/xlink" x="0px" y="0px"
	 width="48px" height="48px" viewBox="0 0 48 48" enable-background="new 0 0 48 48" xml:space="preserve">
<g>
	<defs>
		<rect id="SVGID_7_" width="47.999" height="48"/>
	</defs>
	<clipPath id="SVGID_2_">
		<use xlink:href="#SVGID_7_"  overflow="visible"/>
	</clipPath>
	<circle clip-path="url(#SVGID_2_)" fill="#474647" cx="24" cy="12" r="4"/>
	<circle clip-path="url(#SVGID_2_)" fill="#474647" cx="9.332" cy="16" r="4"/>
	<circle clip-path="url(#SVGID_2_)" fill="#474647" cx="38.666" cy="16" r="4"/>
	<path clip-path="url(#SVGID_2_)" fill="#474647" d="M38.666,22.667c-1.2,0-2.268,0.4-3.333,0.934L24,30.267l-11.333-6.667
		c-1.068-0.534-2.134-0.934-3.333-0.934c-3.735,0-6.667,2.934-6.667,6.667V40h13.333v-8.267l6.667,4
		C22.932,35.867,23.064,36,23.332,36c0.266,0,0.4,0.132,0.667,0.132l0,0c0.266,0,0.398,0,0.667-0.132
		c0.265,0,0.397-0.134,0.666-0.268l6.667-4V40h13.333V29.334C45.333,25.6,42.398,22.667,38.666,22.667z"/>
	<path clip-path="url(#SVGID_2_)" fill="#474647" d="M24,27.201l6.398-3.734C29.599,20.799,27.064,18.8,24,18.8
		c-3.068,0-5.467,2-6.401,4.667L24,27.201z"/>
</g>
</svg>
