<?xml version="1.0" encoding="utf-8"?>
<!-- Generator: Adobe Illustrator 16.0.4, SVG Export Plug-In . SVG Version: 6.00 Build 0)  -->
<!DOCTYPE svg PUBLIC "-//W3C//DTD SVG 1.1//EN" "http://www.w3.org/Graphics/SVG/1.1/DTD/svg11.dtd">
<svg version="1.1" id="Layer_1" xmlns="http://www.w3.org/2000/svg" xmlns:xlink="http://www.w3.org/1999/xlink" x="0px" y="0px"
	 width="48px" height="48px" viewBox="0 0 48 48" enable-background="new 0 0 48 48" xml:space="preserve">
<g>
	<defs>
		<rect id="SVGID_7_" width="48" height="48"/>
	</defs>
	<clipPath id="SVGID_2_">
		<use xlink:href="#SVGID_7_"  overflow="visible"/>
	</clipPath>
	<path clip-path="url(#SVGID_2_)" fill="#474647" d="M36,40H12V20h24V40z M36,16h-2v-4c0-5.52-4.48-10-10-10S14,6.48,14,12h3.8
		c0-3.42,2.78-6.2,6.2-6.2s6.2,2.78,6.2,6.2v4H12c-2.21,0-4,1.79-4,4v20c0,2.21,1.79,4,4,4h24c2.21,0,4-1.79,4-4V20
		C40,17.79,38.21,16,36,16z M24,34c2.21,0,4-1.79,4-4s-1.79-4-4-4s-4,1.79-4,4S21.79,34,24,34z"/>
</g>
</svg>
