<?xml version="1.0" encoding="utf-8"?>
<!-- Generator: Adobe Illustrator 16.0.4, SVG Export Plug-In . SVG Version: 6.00 Build 0)  -->
<!DOCTYPE svg PUBLIC "-//W3C//DTD SVG 1.1//EN" "http://www.w3.org/Graphics/SVG/1.1/DTD/svg11.dtd">
<svg version="1.1" id="Layer_1" xmlns="http://www.w3.org/2000/svg" xmlns:xlink="http://www.w3.org/1999/xlink" x="0px" y="0px"
	 width="48px" height="48px" viewBox="0 0 48 48" enable-background="new 0 0 48 48" xml:space="preserve">
<g>
	<defs>
		<rect id="SVGID_3_" x="2.072" y="-1.055" width="43.983" height="43.983"/>
	</defs>
	<clipPath id="SVGID_2_">
		<use xlink:href="#SVGID_3_"  overflow="visible"/>
	</clipPath>
	<path clip-path="url(#SVGID_2_)" fill="#474647" d="M37.503,34.376h-4.887v-3.665h4.887V34.376z M25.285,34.376v-3.665h4.887v3.665
		H25.285z M25.285,24.601h4.887v3.666h-4.887V24.601z M37.503,24.601v3.666h-4.887v-3.666H37.503z M44.468,18.615l-10.63-4.153
		V7.497h-4.887v5.132L16.367,7.742c-0.855-0.366-1.833-0.245-2.443,0.366L2.927,17.882c-0.977,0.856-1.1,2.444-0.245,3.421
		c0.489,0.61,1.1,0.855,1.833,0.855l0,0h1.222v17.105h7.331V24.601h7.331v14.662H42.39V23.38h1.222c0.977,0,1.955-0.611,2.322-1.588
		C46.422,20.57,45.811,19.104,44.468,18.615z"/>
</g>
</svg>
