<?xml version="1.0" encoding="utf-8"?>
<!-- Generator: Adobe Illustrator 16.0.4, SVG Export Plug-In . SVG Version: 6.00 Build 0)  -->
<!DOCTYPE svg PUBLIC "-//W3C//DTD SVG 1.1//EN" "http://www.w3.org/Graphics/SVG/1.1/DTD/svg11.dtd">
<svg version="1.1" id="Layer_1" xmlns="http://www.w3.org/2000/svg" xmlns:xlink="http://www.w3.org/1999/xlink" x="0px" y="0px"
	 width="48px" height="48px" viewBox="0 0 48 48" enable-background="new 0 0 48 48" xml:space="preserve">
<path id="path" fill="#474647" d="M6,10v28c0,2.209,1.789,4,3.998,4c0,0,0.001,0,0.002,0h28c2.209,0,4-1.79,4-3.998
	c0-0.001,0-0.001,0-0.002V10c0-2.209-1.789-4-3.998-4c0,0-0.001,0-0.002,0H10C7.791,6,6,7.79,6,9.998C6,9.999,6,9.999,6,10z M30,18
	c0,3.313-2.687,6-6,6s-6-2.687-6-6s2.687-6,6-6S30,14.687,30,18z M12,34c0-4,8-6.2,12-6.2S36,30,36,34v2H12V34z"/>
</svg>
