<?xml version="1.0" encoding="utf-8"?>
<!-- Generator: Adobe Illustrator 16.0.4, SVG Export Plug-In . SVG Version: 6.00 Build 0)  -->
<!DOCTYPE svg PUBLIC "-//W3C//DTD SVG 1.1//EN" "http://www.w3.org/Graphics/SVG/1.1/DTD/svg11.dtd">
<svg version="1.1" id="Layer_1" xmlns="http://www.w3.org/2000/svg" xmlns:xlink="http://www.w3.org/1999/xlink" x="0px" y="0px"
	 width="48px" height="48px" viewBox="99.375 36 48 48" enable-background="new 99.375 36 48 48" xml:space="preserve">
<g>
	<g>
		<path fill="#464647" d="M110.632,63.278v4.688c0,3.056,2.477,5.529,5.529,5.529c2.805,0-2.597,0,15.683,0
			c3.056,0,5.531-2.474,5.531-5.529V52.703c0-3.055-2.477-5.53-5.531-5.53h-15.683c-3.053,0-5.529,2.475-5.529,5.53v5.678h-1.257
			l2.286,2.935l2.283-2.935h-1.255v-5.678c0-1.918,1.556-3.473,3.473-3.473h15.683c1.92,0,3.473,1.555,3.473,3.473v15.263
			c0,1.918-1.553,3.474-3.473,3.474c-18.28,0-12.878,0-15.683,0c-1.917,0-3.473-1.556-3.473-3.474v-4.688H110.632z"/>
		<g>
			<path fill="#464647" d="M128.135,45.868c0-0.615,0.499-1.114,1.113-1.114s1.113,0.499,1.113,1.114v3.728
				c0,0.614-0.499,1.113-1.113,1.113s-1.113-0.499-1.113-1.113V45.868z"/>
			<path fill="#464647" d="M116.979,45.868c0-0.615,0.498-1.114,1.112-1.114c0.615,0,1.113,0.499,1.113,1.114v3.728
				c0,0.614-0.497,1.113-1.113,1.113c-0.614,0-1.112-0.499-1.112-1.113V45.868z"/>
		</g>
		<g>
			<path fill="#464647" d="M117.816,59.799h1.294c0.653-0.007,1.172-0.175,1.554-0.508c0.382-0.333,0.572-0.813,0.572-1.443
				c0-0.606-0.157-1.077-0.476-1.412c-0.319-0.336-0.805-0.502-1.457-0.502c-0.571,0-1.041,0.164-1.407,0.492
				c-0.369,0.33-0.552,0.76-0.552,1.291h-2.126c0-0.652,0.174-1.248,0.521-1.784c0.346-0.537,0.83-0.955,1.452-1.256
				c0.62-0.3,1.315-0.45,2.085-0.45c1.272,0,2.271,0.32,2.996,0.958c0.726,0.64,1.089,1.527,1.089,2.664
				c0,0.572-0.182,1.109-0.547,1.614s-0.836,0.884-1.411,1.142c0.699,0.238,1.23,0.613,1.595,1.128
				c0.365,0.513,0.549,1.126,0.549,1.836c0,1.143-0.394,2.053-1.178,2.73c-0.786,0.676-1.814,1.013-3.092,1.013
				c-1.226,0-2.229-0.325-3.009-0.979c-0.782-0.652-1.173-1.521-1.173-2.607h2.126c0,0.561,0.188,1.016,0.563,1.364
				c0.377,0.351,0.881,0.525,1.518,0.525c0.658,0,1.179-0.175,1.558-0.525c0.378-0.349,0.568-0.857,0.568-1.521
				c0-0.671-0.199-1.187-0.597-1.548c-0.395-0.36-0.984-0.542-1.766-0.542h-1.251V59.799L117.816,59.799z"/>
			<path fill="#464647" d="M133.053,61.775c0,1.831-0.341,3.21-1.028,4.141c-0.683,0.93-1.728,1.395-3.127,1.395
				c-1.376,0-2.411-0.453-3.108-1.358c-0.697-0.908-1.053-2.251-1.072-4.027V59.72c0-1.832,0.344-3.205,1.029-4.121
				c0.684-0.915,1.729-1.373,3.134-1.373c1.396,0,2.435,0.446,3.12,1.338c0.684,0.892,1.036,2.228,1.054,4.006L133.053,61.775
				L133.053,61.775z M130.929,59.396c0-1.195-0.164-2.071-0.49-2.628c-0.326-0.556-0.847-0.834-1.559-0.834
				c-0.693,0-1.202,0.264-1.53,0.79c-0.325,0.529-0.498,1.352-0.515,2.472v2.885c0,1.189,0.165,2.078,0.498,2.661
				c0.332,0.582,0.854,0.873,1.564,0.873c0.685,0,1.187-0.268,1.515-0.808c0.325-0.538,0.499-1.383,0.517-2.532V59.396z"/>
		</g>
	</g>
</g>
</svg>
