<?xml version="1.0" encoding="utf-8"?>
<!-- Generator: Adobe Illustrator 16.0.4, SVG Export Plug-In . SVG Version: 6.00 Build 0)  -->
<!DOCTYPE svg PUBLIC "-//W3C//DTD SVG 1.1//EN" "http://www.w3.org/Graphics/SVG/1.1/DTD/svg11.dtd">
<svg version="1.1" id="Layer_1" xmlns="http://www.w3.org/2000/svg" xmlns:xlink="http://www.w3.org/1999/xlink" x="0px" y="0px"
	 width="48px" height="48px" viewBox="0 0 48 48" enable-background="new 0 0 48 48" xml:space="preserve">
<g>
	<g>
		<g>
			<polygon fill="#464646" points="14.244,28.211 30.986,28.211 33.611,13.326 16.871,13.326 			"/>
		</g>
		<g>
			<path fill="#464646" d="M37.018,31.764c-0.285,1.604,0.791,2.91,2.396,2.91c1.604,0,3.141-1.307,3.425-2.91
				c0.281-1.604-0.793-2.912-2.394-2.912C38.838,28.852,37.299,30.158,37.018,31.764z M38.961,31.764
				c0.09-0.537,0.602-0.974,1.135-0.974c0.538,0,0.897,0.437,0.803,0.974c-0.096,0.535-0.605,0.967-1.141,0.967
				C39.219,32.73,38.861,32.299,38.961,31.764z"/>
		</g>
		<g>
			<path fill="#464646" d="M15.671,31.764c-0.283,1.604,0.797,2.91,2.397,2.91c1.604,0,3.141-1.307,3.427-2.91
				c0.279-1.604-0.796-2.912-2.399-2.912C17.494,28.852,15.956,30.158,15.671,31.764z M17.612,31.764
				c0.095-0.537,0.607-0.974,1.142-0.974s0.895,0.437,0.798,0.974c-0.092,0.535-0.603,0.967-1.142,0.967
				C17.875,32.73,17.516,32.299,17.612,31.764z"/>
		</g>
		<g>
			<path fill="#464646" d="M17.756,28.852h-3.512l-0.341,1.938h1.805C16.135,29.932,16.877,29.229,17.756,28.852z"/>
			<path fill="#464646" d="M18.313,30.79h0.881c-0.122-0.06-0.264-0.099-0.422-0.099C18.614,30.691,18.46,30.73,18.313,30.79z"/>
			<path fill="#464646" d="M42.781,21.089l-2.855-5.821h-3.882l-1.599-1.941l-2.736,15.524H20.438
				c0.746,0.377,1.241,1.08,1.364,1.938h11.503c0,0,1.725,0,3.748,0c0.641-1.293,2.012-2.243,3.44-2.243
				c1.427,0,2.46,0.941,2.649,2.229c1.814-0.096,2.147-1.924,2.147-1.924s0.343-1.941,0.685-3.884
				C46.322,23.027,42.781,21.089,42.781,21.089z M35.018,21.089l0.685-3.882h3.883l1.255,3.882H35.018z"/>
		</g>
	</g>
	<path fill="#464646" d="M15.512,15.89h-5.495c-0.259,0-0.466-0.206-0.466-0.463c0-0.253,0.207-0.462,0.466-0.462h5.495
		c0.255,0,0.462,0.209,0.462,0.462C15.974,15.684,15.767,15.89,15.512,15.89z"/>
	<path fill="#464646" d="M14.244,19.604H4.386c-0.257,0-0.465-0.209-0.465-0.463c0-0.259,0.208-0.465,0.465-0.465h9.858
		c0.258,0,0.464,0.206,0.464,0.465C14.708,19.396,14.502,19.604,14.244,19.604z"/>
	<path fill="#464646" d="M13.318,23.405H9.792c-0.255,0-0.464-0.204-0.464-0.458c0-0.261,0.209-0.467,0.464-0.467h3.525
		c0.259,0,0.468,0.206,0.468,0.467C13.786,23.201,13.577,23.405,13.318,23.405z"/>
	<path fill="#464646" d="M12.765,27.398H2.461C2.209,27.398,2,27.188,2,26.934s0.209-0.463,0.461-0.463h10.303
		c0.255,0,0.462,0.209,0.462,0.463C13.227,27.188,13.02,27.398,12.765,27.398z"/>
</g>
</svg>
