<?xml version="1.0" encoding="utf-8"?>
<!-- Generator: Adobe Illustrator 16.0.4, SVG Export Plug-In . SVG Version: 6.00 Build 0)  -->
<!DOCTYPE svg PUBLIC "-//W3C//DTD SVG 1.1//EN" "http://www.w3.org/Graphics/SVG/1.1/DTD/svg11.dtd">
<svg version="1.1" id="Layer_1" xmlns="http://www.w3.org/2000/svg" xmlns:xlink="http://www.w3.org/1999/xlink" x="0px" y="0px"
	 width="48px" height="48px" viewBox="0 0 48 48" enable-background="new 0 0 48 48" xml:space="preserve">
<path fill="#5FA9DD" d="M23.938,0C10.708,0-0.017,10.728-0.017,23.954c0,13.229,10.725,23.953,23.955,23.953
	s23.953-10.724,23.953-23.953C47.892,10.728,37.169,0,23.938,0z M30.376,37.907c-0.986,0-6.452-0.129-7.848-0.129
	s-8.67-2.269-8.67-10.271c0-1.425,0-2.857-0.004-4.285c-0.006-1.329-0.033-2.657-0.039-3.978c0-0.386-0.002-0.771-0.004-1.158
	c-0.01-2.016-0.18-4.283,0.469-6.22c0.496-1.477,1.668-2.067,3.113-2.067c3.496,0,3.73,3.564,3.739,7.145h10.104
	c1.601,0,2.794,1.622,2.794,4.104c0,2.481-2.588,3.038-3.943,3.038h-9.067c-0.045,1.521-0.094,2.758-0.094,3.51
	c0,1.581,0.617,3.293,4.477,3.293h5.427c1.354,0,3.366,1.025,3.366,3.894C34.196,37.646,31.361,37.907,30.376,37.907z"/>
</svg>
