<?xml version="1.0" encoding="utf-8"?>
<!-- Generator: Adobe Illustrator 16.0.4, SVG Export Plug-In . SVG Version: 6.00 Build 0)  -->
<!DOCTYPE svg PUBLIC "-//W3C//DTD SVG 1.1//EN" "http://www.w3.org/Graphics/SVG/1.1/DTD/svg11.dtd">
<svg version="1.1" id="Layer_1" xmlns="http://www.w3.org/2000/svg" xmlns:xlink="http://www.w3.org/1999/xlink" x="0px" y="0px"
	 width="48px" height="48px" viewBox="0 0 48 48" enable-background="new 0 0 48 48" xml:space="preserve">
<path fill="#3B5999" d="M24.005,0C10.739,0-0.017,10.757-0.017,24.022c0,13.267,10.755,24.02,24.022,24.02
	c13.266,0,24.022-10.753,24.022-24.02C48.027,10.757,37.271,0,24.005,0z M30.364,23.921h-4.159c0,6.647,0,14.835,0,14.835h-6.167
	c0,0,0-8.104,0-14.835h-2.931v-5.238h2.931V15.29c0-2.429,1.154-6.221,6.223-6.221l4.564,0.017v5.087c0,0-2.775,0-3.315,0
	s-1.306,0.271-1.306,1.425v3.084h4.699L30.364,23.921z"/>
</svg>
