<?xml version="1.0" encoding="utf-8"?>
<!-- Generator: Adobe Illustrator 16.0.4, SVG Export Plug-In . SVG Version: 6.00 Build 0)  -->
<!DOCTYPE svg PUBLIC "-//W3C//DTD SVG 1.1//EN" "http://www.w3.org/Graphics/SVG/1.1/DTD/svg11.dtd">
<svg version="1.1" id="Layer_1" xmlns="http://www.w3.org/2000/svg" xmlns:xlink="http://www.w3.org/1999/xlink" x="0px" y="0px"
	 width="48px" height="48px" viewBox="-12 -12 48 48" enable-background="new -12 -12 48 48" xml:space="preserve">
<g id="Layer_1_1_">
	<g>
		<g>
			<path fill="#474647" d="M14.774,21.197c-0.075,0-0.155-0.012-0.229-0.038c-0.205-0.06-0.381-0.206-0.479-0.396L2.056-2.553h-3.35
				c-0.441,0-0.8-0.357-0.8-0.799c0-0.443,0.359-0.798,0.8-0.798h3.837c0.301,0,0.573,0.167,0.71,0.431L15.11,19.299l8.792-4.879
				c0.387-0.212,0.876-0.072,1.09,0.312c0.214,0.387,0.076,0.874-0.312,1.088l-9.517,5.278
				C15.042,21.163,14.91,21.197,14.774,21.197z"/>
		</g>
		<g>
			<path fill="#474647" d="M9.978-0.074l6.636-3.518c1.2-0.639,2.719-0.16,3.36,1.038l5.837,11.275
				c0.639,1.198,0.16,2.719-1.04,3.358l-6.636,3.52c-1.2,0.641-2.721,0.159-3.36-1.04L8.938,3.204
				C8.299,2.002,8.698,0.565,9.978-0.074z"/>
		</g>
		<g>
			<circle fill="#474647" cx="19.093" cy="24.954" r="3.196"/>
		</g>
	</g>
</g>
<path fill="none" d="M-12-12h48v48h-48V-12z"/>
</svg>
