<?xml version="1.0" encoding="utf-8"?>
<!-- Generator: Adobe Illustrator 18.0.0, SVG Export Plug-In . SVG Version: 6.00 Build 0)  -->
<!DOCTYPE svg PUBLIC "-//W3C//DTD SVG 1.1//EN" "http://www.w3.org/Graphics/SVG/1.1/DTD/svg11.dtd">
<svg version="1.1" id="Layer_1" xmlns="http://www.w3.org/2000/svg" xmlns:xlink="http://www.w3.org/1999/xlink" x="0px" y="0px"
	 viewBox="0 0 297 277" enable-background="new 0 0 297 277" xml:space="preserve">
<circle fill="#FED41A" cx="120" cy="138.5" r="120"/>
<g>
	<g>
		<path fill="#010101" d="M218.5,230.5h-21.3c-13.7,0-24.9-11.1-24.9-24.9V84.9c0-13.7,11.2-24.9,24.9-24.9h21.3
			c13.7,0,24.9,11.2,24.9,24.9v120.8C243.3,219.4,232.2,230.5,218.5,230.5z M197.1,67.1c-9.8,0-17.8,8-17.8,17.8v120.8
			c0,9.8,8,17.8,17.8,17.8h21.3c9.8,0,17.8-8,17.8-17.8V84.9c0-9.8-8-17.8-17.8-17.8C218.5,67.1,197.1,67.1,197.1,67.1z"/>
		<path fill="#010101" d="M223.7,229.8c-1.7,0-3.2-1.2-3.5-2.9c-0.4-1.9,0.9-3.8,2.8-4.2l25.2-4.8c9.5-2.1,15.6-11.5,13.5-21.1
			l-25.5-115c-0.4-1.9,0.8-3.8,2.7-4.2c1.9-0.4,3.8,0.8,4.2,2.7l25.5,115c2.9,13.4-5.7,26.7-19.1,29.6l-25.3,4.9
			C224.2,229.8,223.9,229.8,223.7,229.8L223.7,229.8z"/>
		<path fill="#010101" d="M255.8,222.2c-1.4,0-2.7-0.8-3.3-2.2c-0.8-1.8,0.1-3.9,1.9-4.7l24.5-10.5c8.7-4.2,12.5-14.8,8.2-23.6
			L234.8,78c-0.9-1.8-0.2-3.9,1.6-4.8c1.8-0.9,3.9-0.2,4.8,1.6l52.3,103.3c5.9,12.4,0.7,27.3-11.7,33.2l-24.7,10.6
			C256.7,222.1,256.2,222.2,255.8,222.2L255.8,222.2z"/>
		<path fill="#010101" d="M225.6,209.2H190c-2,0-3.6-1.6-3.6-3.6v-21.3c0-2,1.6-3.6,3.6-3.6h35.5c2,0,3.6,1.6,3.6,3.6v21.3
			C229.1,207.6,227.5,209.2,225.6,209.2z M193.6,202.1H222v-14.2h-28.4C193.6,187.9,193.6,202.1,193.6,202.1z"/>
		<path fill="#010101" d="M225.6,166.6H190c-2,0-3.6-1.6-3.6-3.6v-21.3c0-2,1.6-3.6,3.6-3.6h35.5c2,0,3.6,1.6,3.6,3.6V163
			C229.1,165,227.5,166.6,225.6,166.6z M193.6,159.5H222v-14.2h-28.4C193.6,145.3,193.6,159.5,193.6,159.5z"/>
		<path fill="#010101" d="M225.6,123.9H190c-2,0-3.6-1.6-3.6-3.6V99.1c0-2,1.6-3.6,3.6-3.6h35.5c2,0,3.6,1.6,3.6,3.6v21.3
			C229.1,122.4,227.5,123.9,225.6,123.9z M193.6,116.8H222v-14.2h-28.4C193.6,102.6,193.6,116.8,193.6,116.8z"/>
		<path fill="#010101" d="M207.8,91.8c-5.9,0-10.7-4.8-10.7-10.7s4.8-10.7,10.7-10.7s10.7,4.8,10.7,10.7S213.7,91.8,207.8,91.8z
			 M207.8,77.6c-2,0-3.6,1.6-3.6,3.6c0,2,1.6,3.6,3.6,3.6s3.6-1.6,3.6-3.6C211.4,79.2,209.8,77.6,207.8,77.6z"/>
	</g>
	<g>
		<path fill="#010101" d="M161,232.3h-35.5c-2,0-3.6-1.6-3.6-3.6V65.3c0-2,1.6-3.6,3.6-3.6H161c2,0,3.6,1.6,3.6,3.6v163.4
			C164.6,230.7,163,232.3,161,232.3z M129,225.2h28.4V68.9H129V225.2z"/>
		<path fill="#010101" d="M143.2,90.2H129c-2,0-3.6-1.6-3.6-3.6c0-2,1.6-3.6,3.6-3.6h14.2c2,0,3.6,1.6,3.6,3.6
			C146.8,88.6,145.2,90.2,143.2,90.2z"/>
		<path fill="#010101" d="M136.1,104.4H129c-2,0-3.6-1.6-3.6-3.6s1.6-3.6,3.6-3.6h7.1c2,0,3.6,1.6,3.6,3.6S138.1,104.4,136.1,104.4z
			"/>
		<path fill="#010101" d="M143.2,118.6H129c-2,0-3.6-1.6-3.6-3.6c0-2,1.6-3.6,3.6-3.6h14.2c2,0,3.6,1.6,3.6,3.6
			C146.8,117,145.2,118.6,143.2,118.6z"/>
		<path fill="#010101" d="M136.1,132.8H129c-2,0-3.6-1.6-3.6-3.6c0-2,1.6-3.6,3.6-3.6h7.1c2,0,3.6,1.6,3.6,3.6
			C139.7,131.2,138.1,132.8,136.1,132.8z"/>
		<path fill="#010101" d="M143.2,147H129c-2,0-3.6-1.6-3.6-3.6c0-2,1.6-3.6,3.6-3.6h14.2c2,0,3.6,1.6,3.6,3.6
			C146.8,145.4,145.2,147,143.2,147z"/>
		<path fill="#010101" d="M136.1,161.2H129c-2,0-3.6-1.6-3.6-3.6s1.6-3.6,3.6-3.6h7.1c2,0,3.6,1.6,3.6,3.6S138.1,161.2,136.1,161.2z
			"/>
		<path fill="#010101" d="M143.2,175.4H129c-2,0-3.6-1.6-3.6-3.6s1.6-3.6,3.6-3.6h14.2c2,0,3.6,1.6,3.6,3.6S145.2,175.4,143.2,175.4
			z"/>
		<path fill="#010101" d="M136.1,189.6H129c-2,0-3.6-1.6-3.6-3.6c0-2,1.6-3.6,3.6-3.6h7.1c2,0,3.6,1.6,3.6,3.6
			C139.7,188.1,138.1,189.6,136.1,189.6z"/>
		<path fill="#010101" d="M143.2,203.9H129c-2,0-3.6-1.6-3.6-3.6s1.6-3.6,3.6-3.6h14.2c2,0,3.6,1.6,3.6,3.6S145.2,203.9,143.2,203.9
			z"/>
		<path fill="#010101" d="M136.1,218.1H129c-2,0-3.6-1.6-3.6-3.6s1.6-3.6,3.6-3.6h7.1c2,0,3.6,1.6,3.6,3.6S138.1,218.1,136.1,218.1z
			"/>
		<path fill="#010101" d="M100.6,227.6c-1.6,0-3-1-3.4-2.5l-10.7-35.8c-0.1-0.3-0.1-0.7-0.1-1V80.7c0-10.2,6.1-17.9,14.2-17.9
			s14.2,7.7,14.2,17.9v107.5c0,0.3,0,0.7-0.1,1L104,225.1C103.6,226.6,102.2,227.6,100.6,227.6z M93.5,187.7l7.1,23.9l7.1-23.9v-107
			c0-6-3.1-10.8-7.1-10.8s-7.1,4.7-7.1,10.8V187.7z"/>
		<path fill="#010101" d="M93.5,182.5h14.2v7.1H93.5V182.5z"/>
		<path fill="#010101" d="M75.8,150.6c-2,0-3.6-1.6-3.6-3.6v-46.2c0-2,1.6-3.6,3.6-3.6h39.1c2,0,3.6,1.6,3.6,3.6s-1.6,3.6-3.6,3.6
			H79.3V147C79.3,149,77.7,150.6,75.8,150.6z"/>
	</g>
</g>
</svg>
