<?xml version="1.0" encoding="utf-8"?>
<!-- Generator: Adobe Illustrator 18.0.0, SVG Export Plug-In . SVG Version: 6.00 Build 0)  -->
<!DOCTYPE svg PUBLIC "-//W3C//DTD SVG 1.1//EN" "http://www.w3.org/Graphics/SVG/1.1/DTD/svg11.dtd">
<svg version="1.1" id="Layer_1" xmlns="http://www.w3.org/2000/svg" xmlns:xlink="http://www.w3.org/1999/xlink" x="0px" y="0px"
	 viewBox="0 0 297 277" enable-background="new 0 0 297 277" xml:space="preserve">
<circle fill="#FED41A" cx="177" cy="138.2" r="120"/>
<line fill="none" stroke="#000000" stroke-width="6" stroke-miterlimit="10" x1="297" y1="-0.2" x2="0" y2="276.5"/>
<g>
	<path fill="#010101" d="M97.2,134.6H46.6v39.5v0.2v7.3v32v7.3h43.5h7.3h43.5v-47.1H97.2V134.6z M54.1,148.5l25.4,25.4H68.5
		l-14.4-14.4C54.1,159.5,54.1,148.5,54.1,148.5z M54.1,163.8l10.4,10.4H54.1C54.1,174.1,54.1,163.8,54.1,163.8z M54.1,213.6v-10.4
		l10.4,10.4H54.1z M68.5,213.6l-14.6-14.6V188l25.9,25.6H68.5z M89.9,213.6h-6.1L54.1,184v-2.4h8.7l27.1,27.1V213.6z M89.9,204.5
		l-23.1-23.1h11.1l11.8,11.8v11.3H89.9z M89.9,189.4l-7.8-7.8h7.8V189.4z M89.9,174.1h-6.1l-29.6-29.6v-2.6h8.7l27.1,27.1V174.1z
		 M89.9,164.9l-23.1-23.1h11.1l12,12V164.9z M89.9,149.9l-7.8-7.8h7.8V149.9z M133.2,181.4v7.8l-7.8-7.8H133.2z M121.4,181.4l12,12
		v11.1l-23.1-23.1L121.4,181.4L121.4,181.4z M97.4,181.4h8.7l27.1,27.1v5.2h-6.1L97.4,184V181.4z M97.4,188l25.6,25.6H112
		l-14.6-14.6C97.4,199.1,97.4,188,97.4,188z M97.4,203.3l10.4,10.4H97.4V203.3z"/>
	<path fill="#010101" d="M105.9,44.5L0,106.1l7.1,12l11.8-6.8v109.9H28h8.5v-96.9h138.4v96.7h8.5h9.4V111.1l11.8,6.8l7.1-12
		L105.9,44.5z M109.9,100.2h-8.2V84.7h8.2V100.2z"/>
</g>
</svg>
