<?xml version="1.0" encoding="utf-8"?>
<!-- Generator: Adobe Illustrator 18.0.0, SVG Export Plug-In . SVG Version: 6.00 Build 0)  -->
<!DOCTYPE svg PUBLIC "-//W3C//DTD SVG 1.1//EN" "http://www.w3.org/Graphics/SVG/1.1/DTD/svg11.dtd">
<svg version="1.1" id="Layer_1" xmlns="http://www.w3.org/2000/svg" xmlns:xlink="http://www.w3.org/1999/xlink" x="0px" y="0px"
	 viewBox="0 0 297 277" enable-background="new 0 0 297 277" xml:space="preserve">
<circle fill="#FED41A" cx="120" cy="138.5" r="120"/>
<g>
	<path fill="#010101" d="M81.2,128.4h8.2v56.5h3.1v-56.5h38.2v15.3v3.1V165h38.1v19.9h3.1V165v-18.2v-3.1v-15.3h8.2v-3.1h-99
		C81.2,125.3,81.2,128.4,81.2,128.4z M168.8,161.9h-35.1v-15.1h35L168.8,161.9L168.8,161.9z M133.8,143.7v-15.1h35v15.1H133.8z"/>
	<rect x="147" y="134.6" fill="#010101" width="8.5" height="3.1"/>
	<rect x="147" y="152.8" fill="#010101" width="8.5" height="3.1"/>
	<rect x="194.3" y="103.9" fill="#010101" width="59.9" height="3.4"/>
	<rect x="194.3" y="113.4" fill="#010101" width="59.9" height="3.4"/>
	<rect x="194.3" y="123.6" fill="#010101" width="29.9" height="3.4"/>
	<path fill="#010101" d="M225,156.5c-0.1-0.1,0-0.3,0.1-0.4c1.5-1.1,2.2-3,2.2-5.7c0-4.7-2.1-6.9-7.2-6.9h-6.3
		c-0.5,0-0.9,0.4-0.9,0.9v18.4c0,0.5,0.4,0.9,0.9,0.9h3.2c0.5,0,0.9-0.4,0.9-0.9v-4.6c0-0.5,0.4-0.9,0.9-0.9h1.2
		c0.1,0,0.2,0.1,0.2,0.1l3,5.8c0.1,0.3,0.4,0.4,0.7,0.4h3.3c0.9,0,1.4-0.8,0.9-1.6L225,156.5z M220.2,152.4h-1.5
		c-0.5,0-0.9-0.4-0.9-0.9v-2.1c0-0.5,0.4-0.9,0.9-0.9h1.5c1.4,0,2.1,0.2,2.1,2C222.3,152.3,221.6,152.4,220.2,152.4z"/>
	<path fill="#010101" d="M237.2,151.4h-6.4c-0.6,0-0.9,0.3-0.9,0.9v18.4c0,0.5,0.3,0.9,0.9,0.9h3.2c0.6,0,0.9-0.3,0.9-0.9v-4.6
		c0-0.6,0.3-0.9,0.9-0.9h1.4c5.1,0,7.2-2.2,7.2-6.9C244.4,153.6,242.3,151.4,237.2,151.4z M237.3,160.3h-1.6c-0.5,0-0.9-0.3-0.9-0.9
		v-2.2c0-0.6,0.3-0.9,0.9-0.9h1.6c1.4,0,2.1,0.2,2.1,2S238.7,160.3,237.3,160.3z"/>
	<path fill="#010101" d="M62.8,60.3v170h216.3v-170H62.8z M104.5,66.5c2.2,0,4,1.8,4,4c0,2.2-1.8,4-4,4c-2.2,0-4-1.8-4-4
		C100.5,68.2,102.3,66.5,104.5,66.5z M69.4,223.3V81.9h202.7v141.4H69.4z M91,66.5c2.2,0,4,1.8,4,4c0,2.2-1.8,4-4,4s-4-1.8-4-4
		C87,68.2,88.8,66.5,91,66.5z M77.4,66.5c2.2,0,4,1.8,4,4c0,2.2-1.8,4-4,4c-2.2,0-4-1.8-4-4C73.4,68.2,75.2,66.5,77.4,66.5z"/>
</g>
</svg>
