<?xml version="1.0" encoding="utf-8"?>
<!-- Generator: Adobe Illustrator 18.0.0, SVG Export Plug-In . SVG Version: 6.00 Build 0)  -->
<!DOCTYPE svg PUBLIC "-//W3C//DTD SVG 1.1//EN" "http://www.w3.org/Graphics/SVG/1.1/DTD/svg11.dtd">
<svg version="1.1" id="Layer_1" xmlns="http://www.w3.org/2000/svg" xmlns:xlink="http://www.w3.org/1999/xlink" x="0px" y="0px"
	 viewBox="0 0 297 277" enable-background="new 0 0 297 277" xml:space="preserve">
<circle fill="#FED41A" cx="148.9" cy="120.2" r="120"/>
<g>
	<path fill="#010101" d="M201.9,13.6L188,20.6l-13.9-6.9l-13.9,6.9l-13.9-6.9l-13.8,6.9l-13.9-6.9l-13.9,6.9L91,13.6l-13.9,6.9V270
		l13.8,6.9l13.8-6.9l13.9,6.9l13.9-6.9l13.9,6.9l13.8-6.9l13.9,6.9l13.9-6.9l13.9,6.9l13.9-6.9V20.6L201.9,13.6z M208.8,265.7
		l-6.9,3.5l-10.8-5.4c-1-0.5-2-0.7-3.1-0.7c-1.1,0-2.1,0.2-3.1,0.7l-10.8,5.4l-10.8-5.4c-1-0.5-2-0.7-3.1-0.7
		c-1.1,0-2.1,0.2-3.1,0.7l-10.8,5.4l-10.8-5.4c-1-0.5-2-0.7-3.1-0.7s-2.1,0.2-3.1,0.7l-10.8,5.4l-10.8-5.4c-1-0.5-2-0.7-3.1-0.7
		c-1.1,0-2.1,0.2-3.1,0.7L91,269.1l-6.9-3.5V24.8l6.9-3.5l10.8,5.4c1,0.5,2,0.7,3.1,0.7s2.1-0.2,3.1-0.7l10.8-5.4l10.8,5.4
		c1,0.5,2,0.7,3.1,0.7c1.1,0,2.1-0.2,3.1-0.7l10.8-5.4l10.8,5.4c1,0.5,2,0.7,3.1,0.7c1.1,0,2.1-0.2,3.1-0.7l10.8-5.4l10.8,5.4
		c1,0.5,2,0.7,3.1,0.7s2.1-0.2,3.1-0.7l10.7-5.4l6.9,3.5C208.8,24.8,208.8,265.7,208.8,265.7z"/>
	<path fill="#010101" d="M188,44.8h-83.1c-1.9,0-3.5,1.5-3.5,3.5s1.6,3.5,3.5,3.5H188c1.9,0,3.5-1.5,3.5-3.5
		C191.5,46.4,189.9,44.8,188,44.8z"/>
	<path fill="#010101" d="M175.9,62.1c0-1-0.8-1.7-1.7-1.7h-55.4c-1,0-1.7,0.8-1.7,1.7s0.8,1.7,1.7,1.7h55.4
		C175.1,63.9,175.9,63.1,175.9,62.1z"/>
	<path fill="#010101" d="M103.1,96.8c0,1,0.8,1.7,1.7,1.7h27.7c1,0,1.7-0.8,1.7-1.7s-0.8-1.7-1.7-1.7h-27.7
		C103.9,95,103.1,95.8,103.1,96.8z"/>
	<path fill="#010101" d="M104.9,112.3h27.7c1,0,1.7-0.8,1.7-1.7c0-1-0.8-1.7-1.7-1.7h-27.7c-1,0-1.7,0.8-1.7,1.7
		C103.1,111.6,103.9,112.3,104.9,112.3z"/>
	<path fill="#010101" d="M104.9,126.2h27.7c1,0,1.7-0.8,1.7-1.7c0-1-0.8-1.7-1.7-1.7h-27.7c-1,0-1.7,0.8-1.7,1.7
		C103.1,125.4,103.9,126.2,104.9,126.2z"/>
	<path fill="#010101" d="M104.9,167.8h27.7c1,0,1.7-0.8,1.7-1.7s-0.8-1.7-1.7-1.7h-27.7c-1,0-1.7,0.8-1.7,1.7
		S103.9,167.8,104.9,167.8z"/>
	<path fill="#010101" d="M104.9,181.6h27.7c1,0,1.7-0.8,1.7-1.7c0-1-0.8-1.7-1.7-1.7h-27.7c-1,0-1.7,0.8-1.7,1.7
		S103.9,181.6,104.9,181.6z"/>
	<path fill="#010101" d="M138.4,198.9c-1,0-1.7,0.8-1.7,1.7c0,1,0.8,1.7,1.7,1.7h2.2c1,0,1.7-0.8,1.7-1.7c0-1-0.8-1.7-1.7-1.7H138.4
		z"/>
	<path fill="#010101" d="M149.6,198.9c-1,0-1.7,0.8-1.7,1.7c0,1,0.8,1.7,1.7,1.7h2.2c1,0,1.7-0.8,1.7-1.7c0-1-0.8-1.7-1.7-1.7H149.6
		z"/>
	<path fill="#010101" d="M116,198.9c-1,0-1.7,0.8-1.7,1.7c0,1,0.8,1.7,1.7,1.7h2.2c1,0,1.7-0.8,1.7-1.7c0-1-0.8-1.7-1.7-1.7H116z"/>
	<path fill="#010101" d="M163,198.9h-2.2c-1,0-1.7,0.8-1.7,1.7c0,1,0.8,1.7,1.7,1.7h2.2c1,0,1.7-0.8,1.7-1.7
		C164.7,199.7,163.9,198.9,163,198.9z"/>
	<path fill="#010101" d="M127.2,198.9c-1,0-1.7,0.8-1.7,1.7c0,1,0.8,1.7,1.7,1.7h2.2c1,0,1.7-0.8,1.7-1.7c0-1-0.8-1.7-1.7-1.7H127.2
		z"/>
	<path fill="#010101" d="M185.3,198.9h-2.2c-1,0-1.7,0.8-1.7,1.7c0,1,0.8,1.7,1.7,1.7h2.2c1,0,1.7-0.8,1.7-1.7
		C187.1,199.7,186.3,198.9,185.3,198.9z"/>
	<path fill="#010101" d="M174.2,198.9h-2.2c-1,0-1.7,0.8-1.7,1.7c0,1,0.8,1.7,1.7,1.7h2.2c1,0,1.7-0.8,1.7-1.7
		C175.9,199.7,175.1,198.9,174.2,198.9z"/>
	<path fill="#010101" d="M104.9,202.4h2.2c1,0,1.7-0.8,1.7-1.7c0-1-0.8-1.7-1.7-1.7h-2.2c-1,0-1.7,0.8-1.7,1.7
		C103.1,201.6,103.9,202.4,104.9,202.4z"/>
	<path fill="#010101" d="M188,95h-41.6c-1,0-1.7,0.8-1.7,1.7c0,1,0.8,1.7,1.7,1.7H188c1,0,1.7-0.8,1.7-1.7
		C189.7,95.8,188.9,95,188,95z"/>
	<path fill="#010101" d="M188,108.9h-41.6c-1,0-1.7,0.8-1.7,1.7c0,1,0.8,1.7,1.7,1.7H188c1,0,1.7-0.8,1.7-1.7
		C189.7,109.7,188.9,108.9,188,108.9z"/>
	<path fill="#010101" d="M175.9,124.5c0-1-0.8-1.7-1.7-1.7h-27.7c-1,0-1.7,0.8-1.7,1.7c0,1,0.8,1.7,1.7,1.7h27.7
		C175.1,126.2,175.9,125.4,175.9,124.5z"/>
	<path fill="#010101" d="M180.3,165.9c-1.2-0.4-3.5-1.1-3.5-2.8c0-1.4,1.5-2,3-2c1.7,0,3.3,0.7,4.6,1.7l2.6-5.2
		c-1.9-1.2-4.2-1.9-6.5-2.1v-4.3h-3.3v4.3c-4.3,0.3-7.3,4.2-7.3,8.4c0,4.3,2.8,5.9,5.6,7c2.8,1,5.6,1.4,5.6,3.4
		c0,1.7-1.9,2.6-3.4,2.6c-2.3,0-4.8-1.5-6.4-3l-2.9,5.4c1.2,1.1,2.7,1.8,4.2,2.3c1.5,0.6,3,0.9,4.6,0.9v4.2h3.3v-4.5
		c4.6-1.1,7.5-3.7,7.5-8.7C188,168.7,184.3,167.2,180.3,165.9z"/>
	<path fill="#010101" d="M160.3,226.7h-55.4c-1,0-1.7,0.8-1.7,1.7c0,1,0.8,1.7,1.7,1.7h55.4c1,0,1.7-0.8,1.7-1.7
		C162,227.4,161.2,226.7,160.3,226.7z"/>
</g>
<line fill="none" stroke="#000000" stroke-width="6" stroke-miterlimit="10" x1="297" y1="0.2" x2="0" y2="276.9"/>
</svg>
